<svg width="179" height="19" viewBox="0 0 179 19" fill="none" xmlns="http://www.w3.org/2000/svg">
<rect width="179" height="19" fill="white"/>
<path d="M0 5.00679e-06H3.63636V3.63637H0V5.00679e-06ZM0 3.63637H3.63636V7.27273H0V3.63637ZM0 7.27273H3.63636V10.9091H0V7.27273ZM0 10.9091H3.63636V14.5455H0V10.9091ZM0 14.5455H3.63636V18.1818H0V14.5455ZM3.63636 5.00679e-06H7.27273V3.63637H3.63636V5.00679e-06ZM3.63636 14.5455H7.27273V18.1818H3.63636V14.5455ZM3.63636 7.27273H7.27273V10.9091H3.63636V7.27273ZM7.27273 5.00679e-06H10.9091V3.63637H7.27273V5.00679e-06ZM7.27273 14.5455H10.9091V18.1818H7.27273V14.5455ZM14.5312 5.00679e-06H18.1676V3.63637H14.5312V5.00679e-06ZM18.1676 5.00679e-06H21.804V3.63637H18.1676V5.00679e-06ZM21.804 5.00679e-06H25.4403V3.63637H21.804V5.00679e-06ZM18.1676 3.63637H21.804V7.27273H18.1676V3.63637ZM18.1676 7.27273H21.804V10.9091H18.1676V7.27273ZM18.1676 10.9091H21.804V14.5455H18.1676V10.9091ZM18.1676 14.5455H21.804V18.1818H18.1676V14.5455ZM32.6989 5.00679e-06H36.3352V3.63637H32.6989V5.00679e-06ZM29.0625 5.00679e-06H32.6989V3.63637H29.0625V5.00679e-06ZM29.0625 3.63637H32.6989V7.27273H29.0625V3.63637ZM29.0625 7.27273H32.6989V10.9091H29.0625V7.27273ZM29.0625 10.9091H32.6989V14.5455H29.0625V10.9091ZM29.0625 14.5455H32.6989V18.1818H29.0625V14.5455ZM32.6989 14.5455H36.3352V18.1818H32.6989V14.5455ZM39.9609 14.5455H43.5973V18.1818H39.9609V14.5455ZM39.9609 10.9091H43.5973V14.5455H39.9609V10.9091ZM39.9609 7.27273H43.5973V10.9091H39.9609V7.27273ZM39.9609 3.63637H43.5973V7.27273H39.9609V3.63637ZM39.9609 5.00679e-06H43.5973V3.63637H39.9609V5.00679e-06ZM43.5973 7.27273H47.2337V10.9091H43.5973V7.27273ZM47.2337 5.00679e-06H50.87V3.63637H47.2337V5.00679e-06ZM47.2337 3.63637H50.87V7.27273H47.2337V3.63637ZM47.2337 7.27273H50.87V10.9091H47.2337V7.27273ZM47.2337 10.9091H50.87V14.5455H47.2337V10.9091ZM47.2337 14.5455H50.87V18.1818H47.2337V14.5455ZM54.4922 7.27273H58.1286V10.9091H54.4922V7.27273ZM58.1286 7.27273H61.7649V10.9091H58.1286V7.27273ZM61.7649 7.27273H65.4013V10.9091H61.7649V7.27273ZM69.0234 14.5455H72.6598V18.1818H69.0234V14.5455ZM69.0234 10.9091H72.6598V14.5455H69.0234V10.9091ZM69.0234 7.27273H72.6598V10.9091H69.0234V7.27273ZM69.0234 3.63637H72.6598V7.27273H69.0234V3.63637ZM72.6598 5.00679e-06H76.2962V3.63637H72.6598V5.00679e-06ZM76.2962 3.63637H79.9325V7.27273H76.2962V3.63637ZM76.2962 7.27273H79.9325V10.9091H76.2962V7.27273ZM76.2962 10.9091H79.9325V14.5455H76.2962V10.9091ZM76.2962 14.5455H79.9325V18.1818H76.2962V14.5455ZM72.6598 7.27273H76.2962V10.9091H72.6598V7.27273ZM83.5547 7.27273H87.1911V10.9091H83.5547V7.27273ZM87.1911 7.27273H90.8274V10.9091H87.1911V7.27273ZM90.8274 7.27273H94.4638V10.9091H90.8274V7.27273ZM105.359 5.00679e-06H108.995V3.63637H105.359V5.00679e-06ZM101.722 5.00679e-06H105.359V3.63637H101.722V5.00679e-06ZM98.0859 3.63637H101.722V7.27273H98.0859V3.63637ZM98.0859 7.27273H101.722V10.9091H98.0859V7.27273ZM101.722 7.27273H105.359V10.9091H101.722V7.27273ZM105.359 7.27273H108.995V10.9091H105.359V7.27273ZM105.359 10.9091H108.995V14.5455H105.359V10.9091ZM105.359 14.5455H108.995V18.1818H105.359V14.5455ZM101.722 14.5455H105.359V18.1818H101.722V14.5455ZM98.0859 14.5455H101.722V18.1818H98.0859V14.5455ZM98.0859 5.00679e-06H101.722V3.63637H98.0859V5.00679e-06ZM112.617 5.00679e-06H116.254V3.63637H112.617V5.00679e-06ZM112.617 3.63637H116.254V7.27273H112.617V3.63637ZM112.617 7.27273H116.254V10.9091H112.617V7.27273ZM112.617 10.9091H116.254V14.5455H112.617V10.9091ZM112.617 14.5455H116.254V18.1818H112.617V14.5455ZM119.89 5.00679e-06H123.526V3.63637H119.89V5.00679e-06ZM119.89 3.63637H123.526V7.27273H119.89V3.63637ZM116.254 7.27273H119.89V10.9091H116.254V7.27273ZM119.89 10.9091H123.526V14.5455H119.89V10.9091ZM119.89 14.5455H123.526V18.1818H119.89V14.5455ZM127.148 5.00679e-06H130.785V3.63637H127.148V5.00679e-06ZM127.148 3.63637H130.785V7.27273H127.148V3.63637ZM127.148 7.27273H130.785V10.9091H127.148V7.27273ZM127.148 10.9091H130.785V14.5455H127.148V10.9091ZM127.148 14.5455H130.785V18.1818H127.148V14.5455ZM130.785 5.00679e-06H134.421V3.63637H130.785V5.00679e-06ZM130.785 14.5455H134.421V18.1818H130.785V14.5455ZM130.785 7.27273H134.421V10.9091H130.785V7.27273ZM134.421 5.00679e-06H138.058V3.63637H134.421V5.00679e-06ZM134.421 14.5455H138.058V18.1818H134.421V14.5455ZM141.68 5.00679e-06H145.316V3.63637H141.68V5.00679e-06ZM145.316 5.00679e-06H148.952V3.63637H145.316V5.00679e-06ZM148.952 5.00679e-06H152.589V3.63637H148.952V5.00679e-06ZM145.316 3.63637H148.952V7.27273H145.316V3.63637ZM145.316 7.27273H148.952V10.9091H145.316V7.27273ZM145.316 10.9091H148.952V14.5455H145.316V10.9091ZM145.316 14.5455H148.952V18.1818H145.316V14.5455ZM159.847 5.00679e-06H163.484V3.63637H159.847V5.00679e-06ZM156.211 5.00679e-06H159.847V3.63637H156.211V5.00679e-06ZM156.211 3.63637H159.847V7.27273H156.211V3.63637ZM156.211 7.27273H159.847V10.9091H156.211V7.27273ZM156.211 10.9091H159.847V14.5455H156.211V10.9091ZM156.211 14.5455H159.847V18.1818H156.211V14.5455ZM159.847 14.5455H163.484V18.1818H159.847V14.5455ZM167.109 14.5455H170.746V18.1818H167.109V14.5455ZM167.109 10.9091H170.746V14.5455H167.109V10.9091ZM167.109 7.27273H170.746V10.9091H167.109V7.27273ZM167.109 3.63637H170.746V7.27273H167.109V3.63637ZM167.109 5.00679e-06H170.746V3.63637H167.109V5.00679e-06ZM170.746 7.27273H174.382V10.9091H170.746V7.27273ZM174.382 5.00679e-06H178.018V3.63637H174.382V5.00679e-06ZM174.382 3.63637H178.018V7.27273H174.382V3.63637ZM174.382 7.27273H178.018V10.9091H174.382V7.27273ZM174.382 10.9091H178.018V14.5455H174.382V10.9091ZM174.382 14.5455H178.018V18.1818H174.382V14.5455Z" fill="#020202"/>
</svg>
